<?xml version="1.0" standalone="no"?>
<!DOCTYPE svg PUBLIC "-//W3C//DTD SVG 20010904//EN"
 "http://www.w3.org/TR/2001/REC-SVG-20010904/DTD/svg10.dtd">
<svg version="1.0" xmlns="http://www.w3.org/2000/svg"
 width="1408.000000pt" height="768.000000pt" viewBox="0 0 1408.000000 768.000000"
 preserveAspectRatio="xMidYMid meet">

<g transform="translate(0.000000,768.000000) scale(0.100000,-0.100000)"
fill="#000000" stroke="none">
<path d="M6503 6016 c-18 -8 -123 -104 -235 -213 -112 -109 -297 -290 -413
-403 -115 -112 -307 -299 -425 -414 -502 -490 -633 -623 -646 -653 -19 -44
-17 -110 5 -158 20 -45 140 -163 801 -796 239 -229 536 -513 660 -632 124
-119 239 -224 257 -232 36 -18 100 -20 140 -4 63 24 113 99 113 172 0 88 46
39 -800 853 -195 188 -443 427 -550 532 l-195 191 115 113 c245 240 544 532
750 732 516 502 660 649 670 686 22 80 -2 158 -65 206 -45 34 -130 43 -182 20z"/>
<path d="M6835 5145 c-145 -26 -313 -97 -430 -180 -77 -55 -201 -185 -244
-258 -76 -129 -111 -256 -111 -408 0 -181 70 -365 195 -509 45 -52 63 -80 60
-95 -3 -11 -12 -73 -20 -137 -19 -137 -10 -175 46 -203 45 -24 74 -17 249 60
127 56 159 66 189 61 109 -18 176 -17 211 2 44 24 83 95 75 137 -7 37 -19 45
-76 45 -25 0 -92 12 -148 26 l-101 25 -112 -50 c-61 -28 -112 -50 -113 -49 -1
2 4 47 11 101 l14 98 -60 56 c-131 121 -200 269 -201 429 -2 240 139 446 386
564 70 34 117 49 227 74 25 6 26 8 26 70 -1 52 3 72 26 110 l27 46 -28 -1
c-15 0 -59 -7 -98 -14z"/>
<path d="M6595 4401 c-46 -21 -65 -53 -65 -112 0 -33 7 -48 34 -75 29 -29 41
-34 81 -34 40 0 52 5 81 34 28 28 34 42 34 76 0 56 -25 96 -72 115 -47 18 -44
19 -93 -4z"/>
<path d="M7135 3460 c-3 -5 -1 -10 4 -10 6 0 11 5 11 10 0 6 -2 10 -4 10 -3 0
-8 -4 -11 -10z"/>
<path d="M4027 2098 c-54 -15 -112 -73 -127 -127 -24 -89 17 -189 93 -224 67
-32 179 -18 217 28 12 14 10 20 -12 42 l-26 26 -27 -22 c-42 -33 -90 -28 -131
13 -28 28 -34 42 -34 76 0 101 83 151 166 101 l32 -19 22 23 c20 21 21 27 10
40 -34 40 -119 60 -183 43z"/>
<path d="M4280 1915 l0 -185 170 0 170 0 16 40 16 40 82 0 81 0 17 -40 c15
-38 19 -40 58 -40 23 0 40 4 38 9 -1 5 -37 88 -78 185 l-74 177 -44 -3 -44 -3
-67 -160 c-37 -88 -72 -169 -76 -180 -8 -17 -10 -16 -13 13 l-3 32 -85 0 -84
0 0 150 0 150 -40 0 -40 0 0 -185z m510 -42 c0 -2 -25 -3 -55 -3 -30 0 -55 2
-55 4 0 4 22 66 40 111 l11 30 30 -70 c16 -38 29 -71 29 -72z"/>
<path d="M4960 1973 c0 -149 17 -200 74 -227 48 -23 133 -21 174 4 51 31 62
70 62 220 l0 130 -40 0 -40 0 0 -128 c0 -121 -1 -130 -23 -150 -31 -29 -72
-28 -102 3 -24 23 -25 30 -25 150 l0 125 -40 0 -40 0 0 -127z"/>
<path d="M5350 1915 l0 -185 93 0 c109 0 155 11 198 47 73 62 81 191 16 262
-42 45 -93 61 -204 61 l-103 0 0 -185z m210 100 c88 -45 74 -180 -20 -205 -23
-6 -56 -10 -73 -8 l-32 3 -3 99 c-1 55 0 106 2 113 7 18 90 17 126 -2z"/>
<path d="M5760 1915 l0 -185 135 0 135 0 0 35 0 35 -95 0 -95 0 0 45 0 45 80
0 c62 0 80 3 80 14 0 8 3 21 6 30 5 14 -6 16 -80 16 l-86 0 0 40 0 40 95 0 95
0 0 35 0 35 -135 0 -135 0 0 -185z"/>
<path d="M6360 1915 l0 -185 86 0 c112 0 168 15 209 56 66 66 65 193 -1 258
-44 43 -91 56 -203 56 l-91 0 0 -185z m199 104 c64 -22 83 -124 33 -180 -23
-26 -36 -31 -90 -36 l-62 -6 0 117 0 116 44 0 c23 0 57 -5 75 -11z"/>
<path d="M6762 1918 l3 -183 135 0 134 0 1 30 0 30 -95 5 c-67 4 -95 9 -94 18
1 6 2 26 3 42 l1 30 80 0 80 0 0 30 0 30 -80 0 -80 0 0 40 0 40 90 0 90 0 0
35 0 35 -135 0 -135 0 2 -182z"/>
<path d="M7112 1953 c33 -81 67 -165 76 -186 15 -36 17 -38 56 -35 l41 3 72
175 c40 96 73 178 73 183 0 4 -18 7 -39 7 l-39 0 -53 -131 c-40 -98 -56 -126
-62 -112 -4 10 -27 68 -50 128 l-43 110 -46 3 -47 3 61 -148z"/>
<path d="M7730 1915 l0 -185 40 0 40 0 0 49 0 48 67 7 c110 11 153 51 153 140
0 90 -59 126 -205 126 l-95 0 0 -185z m200 95 c47 -47 10 -103 -68 -104 l-47
-1 -3 63 -3 62 51 0 c37 0 55 -5 70 -20z"/>
<path d="M8171 2083 c-16 -31 -141 -336 -141 -345 0 -5 19 -8 42 -6 37 3 42 6
53 38 l12 35 82 3 82 3 16 -41 c15 -38 18 -40 60 -40 25 0 43 4 41 8 -1 5 -37
88 -78 185 l-75 177 -42 0 c-30 0 -45 -5 -52 -17z m99 -206 c0 -8 -87 -3 -96
6 -4 3 33 104 43 121 6 8 53 -105 53 -127z"/>
<path d="M8460 1915 l0 -185 40 0 40 0 0 55 0 55 35 0 c31 0 39 -6 71 -55 35
-53 39 -55 81 -55 48 0 48 -3 1 67 -15 23 -28 45 -28 48 0 4 14 23 30 42 54
62 33 160 -43 196 -25 12 -62 17 -131 17 l-96 0 0 -185z m200 95 c45 -45 12
-96 -67 -103 l-53 -4 0 63 0 64 50 0 c37 0 55 -5 70 -20z"/>
<path d="M8790 2065 l0 -35 55 0 55 0 0 -150 0 -150 40 0 40 0 0 150 0 150 55
0 55 0 0 35 0 35 -150 0 -150 0 0 -35z"/>
<path d="M9140 1915 l0 -185 40 0 39 0 3 108 3 107 83 -107 c77 -100 86 -108
118 -108 l34 0 0 185 0 185 -40 0 -39 0 -3 -110 -3 -110 -84 110 c-77 102 -86
110 -117 110 l-34 0 0 -185z"/>
<path d="M9540 1915 l0 -185 135 0 135 0 0 35 0 35 -95 0 -95 0 0 45 0 45 80
0 80 0 0 30 0 30 -80 0 -80 0 0 40 0 40 90 0 90 0 0 35 0 35 -130 0 -130 0 0
-185z"/>
<path d="M9876 2091 c-4 -6 -4 -88 -1 -183 l5 -173 40 -3 40 -3 0 55 0 56 35
0 c31 0 39 -6 71 -55 35 -53 39 -55 80 -55 l44 0 -31 50 c-17 27 -35 52 -40
56 -5 3 6 23 26 45 28 31 35 47 35 80 0 49 -20 90 -57 115 -22 14 -52 19 -134
22 -70 3 -109 0 -113 -7z m204 -81 c40 -40 11 -98 -50 -101 -71 -3 -70 -4 -70
61 l0 60 50 0 c37 0 55 -5 70 -20z"/>
<path d="M6060 1705 l0 -25 129 0 128 0 -5 25 -4 25 -124 0 -124 0 0 -25z"/>
<path d="M7430 1705 l0 -25 125 0 125 0 0 25 0 25 -125 0 -125 0 0 -25z"/>
<path d="M8580 1321 c0 -6 4 -13 10 -16 6 -3 7 1 4 9 -7 18 -14 21 -14 7z"/>
</g>
</svg>
